<?xml version="1.0" encoding="utf-8"?>
<svg version="1.1" id="Globe" xmlns="http://www.w3.org/2000/svg" viewBox="0 0 83.5 85.7">
<path fill="currentColor" d="M83.4,46.7c0,0,0-0.1,0-0.1l0,0c0-0.3,0-0.6,0.1-0.9c0-0.2,0-0.5,0-0.7c0-0.4,0-0.7,0-1.1c0-0.4,0-0.7,0-1.1
	c0-0.1,0-0.2,0-0.4l0,0c0-0.2,0-0.3,0-0.5l0,0c0-0.1,0-0.2,0-0.3c0-0.1,0-0.3,0-0.4l0,0C82.6,17.9,63.6-0.5,40.9,0
	C17.9,0.5-0.4,20,0,43.6C0.2,57,6.6,69,16.2,76.6l0,0.1c0.1,0,0.1,0,0.2,0.1c7.1,5.6,15.9,8.9,25.4,8.9c0.2,0,0.4,0,0.6,0
	c21.3-0.3,38.7-17.1,40.9-38.3c0-0.1,0-0.2,0-0.3C83.3,46.9,83.4,46.8,83.4,46.7z M70,60.2c0-4.8-0.6-9.7-1.7-14.5
	c4-4,7.3-8.5,9.8-13.3c0.8,3,1.3,6.1,1.4,9.3c0,0.3,0,0.7,0,1c0,0.3,0,0.7,0,1c0,0.3,0,0.7,0,1c0,0.2,0,0.4,0,0.6c0,0.1,0,0.3,0,0.4
	C77.3,51.2,74.1,56.1,70,60.2z M64.5,73.8C63,75,61.5,76,59.8,76.9l-1.5-3.3c2.5-1.2,4.9-2.7,7.1-4.3C65.2,70.9,64.9,72.3,64.5,73.8
	z M28.5,63.8c6.5-0.6,12.9-2.2,18.9-4.6L53,71.7c-4.3,1.8-8.9,3-13.5,3.6C35.2,72.2,31.5,68.4,28.5,63.8z M23.1,53.2
	c-1-2.7-1.8-5.5-2.3-8.3C26.9,44.6,33,43.3,39,41l6.6,14.5c-6.3,2.4-12.9,3.9-19.5,4.4C25,57.8,24,55.6,23.1,53.2z M66,63.9
	c-2.9,2.3-6,4.4-9.3,6.1L51,57.7c5.1-2.4,9.8-5.4,13.9-8.8C65.9,53.9,66.3,59,66,63.9z M49.3,54l-6.6-14.5
	c5.6-2.6,10.6-5.9,14.9-9.9c2.7,4.6,4.8,9.6,6.3,14.8C59.6,48.4,54.6,51.6,49.3,54z M58.2,23.3c-2.9-4-6.2-7.4-9.9-10.2
	c1.8-2.3,3.4-4.7,4.6-7.3c4.6,1.5,8.8,3.8,12.4,6.8C63.5,16.5,61.1,20.1,58.2,23.3z M55.4,26.2c-4.2,3.9-9.1,7.2-14.4,9.6l-5.6-12.3
	c3.8-1.9,7.3-4.5,10.3-7.5C49.8,19.2,53,22.8,55.4,26.2z M19.9,27.5c3.6,0,7.3-0.7,10.9-2c0.3-0.1,0.6-0.2,0.9-0.4l5.6,12.2
	c-5.5,2.1-11.4,3.3-17.3,3.5C19.5,36.4,19.4,31.9,19.9,27.5z M33.7,19.9L28.5,8.5c5.3,0.9,9.9,2.8,13.8,5.2
	C39.8,16.2,36.9,18.3,33.7,19.9z M30.1,21.6c-0.2,0.1-0.4,0.2-0.6,0.2c-3,1.1-6,1.6-9,1.7c0.9-4.7,2.4-9.1,4.4-13.2L30.1,21.6z
	 M16,40.9c-4-0.2-8-0.8-11.8-2c0.5-4.9,1.9-9.6,4-13.8c2.5,1.1,5.1,1.8,7.8,2.2C15.5,31.8,15.5,36.3,16,40.9z M54.6,75.3l1.6,3.4
	c-1.9,0.8-3.8,1.4-5.8,1.9c-2-0.6-3.9-1.4-5.7-2.3C48.1,77.6,51.5,76.6,54.6,75.3z M76.2,27c-2.2,5.4-5.4,10.2-9.1,14.3
	c-1.6-5.1-3.8-10.1-6.6-14.6c3.2-3.4,5.8-7.2,7.9-11.3C71.7,18.8,74.3,22.7,76.2,27z M41,4c2.8-0.1,5.4,0.2,8,0.7
	c-1.1,2.1-2.4,4.1-4,6c-3.9-2.5-8.2-4.4-12.7-5.5C35.1,4.5,38,4.1,41,4z M20.2,11c-1.7,3.9-3,8.1-3.7,12.4c-2.2-0.3-4.3-0.8-6.4-1.7
	C12.8,17.4,16.2,13.8,20.2,11z M4,43c4.1,1.1,8.3,1.8,12.6,1.9c0.6,3.3,1.5,6.5,2.7,9.7c0.7,1.9,1.5,3.8,2.4,5.5
	c-5,0-9.8-0.5-14.4-1.5C5.3,54,4.1,48.9,4,43.5C4,43.4,4,43.2,4,43z M9.6,63.2c3.8,0.7,7.7,1,11.7,1c0.9,0,1.7,0,2.6-0.1
	c2.7,4.4,5.9,8.3,9.5,11.5c-5.1,0-10.2-0.8-15.2-2.4C14.9,70.4,11.9,67,9.6,63.2z M42.4,81.7c-0.2,0-0.4,0-0.6,0
	c-4.4,0-8.7-0.8-12.6-2.2c1.3,0.1,2.7,0.2,4,0.2c1.7,0,3.5-0.1,5.2-0.3C39.7,80.2,41,81,42.4,81.7C42.4,81.7,42.4,81.7,42.4,81.7z
	 M69.5,69.2c0.2-1.1,0.3-2.2,0.4-3.3c2.1-1.9,4.1-3.9,5.9-6C74.1,63.2,72,66.4,69.5,69.2z"/>
</svg>
